<svg width="1200" height="700" viewBox="0 0 1200 700" fill="none" xmlns="http://www.w3.org/2000/svg">
  <defs>
    <linearGradient id="g" x1="0" y1="0" x2="1" y2="1">
      <stop stop-color="#8B5CF6" stop-opacity="0.35" />
      <stop offset="0.5" stop-color="#E879F9" stop-opacity="0.18" />
      <stop offset="1" stop-color="#34D399" stop-opacity="0.16" />
    </linearGradient>
    <pattern id="grid" width="48" height="48" patternUnits="userSpaceOnUse">
      <path d="M 48 0 L 0 0 0 48" fill="none" stroke="rgba(255,255,255,0.08)" stroke-width="1"/>
    </pattern>
  </defs>
  <rect x="0" y="0" width="1200" height="700" rx="32" fill="#0A0A0F"/>
  <rect x="0" y="0" width="1200" height="700" rx="32" fill="url(#grid)" opacity="0.75"/>
  <rect x="64" y="64" width="1072" height="572" rx="24" fill="url(#g)" opacity="0.9"/>
  <rect x="96" y="120" width="480" height="22" rx="11" fill="rgba(255,255,255,0.22)"/>
  <rect x="96" y="164" width="720" height="14" rx="7" fill="rgba(255,255,255,0.16)"/>
  <rect x="96" y="190" width="640" height="14" rx="7" fill="rgba(255,255,255,0.12)"/>
  <rect x="96" y="240" width="380" height="220" rx="20" fill="rgba(0,0,0,0.35)" stroke="rgba(255,255,255,0.14)"/>
  <rect x="508" y="240" width="560" height="220" rx="20" fill="rgba(0,0,0,0.25)" stroke="rgba(255,255,255,0.10)"/>
  <rect x="96" y="490" width="972" height="18" rx="9" fill="rgba(255,255,255,0.10)"/>
  <rect x="96" y="520" width="840" height="18" rx="9" fill="rgba(255,255,255,0.08)"/>
  <rect x="96" y="550" width="720" height="18" rx="9" fill="rgba(255,255,255,0.06)"/>
  <text x="600" y="360" text-anchor="middle" fill="rgba(255,255,255,0.70)" font-family="ui-sans-serif, system-ui, -apple-system, Segoe UI" font-size="22" font-weight="600">
    Replace with real ExpoGraph screenshots
  </text>
</svg>

